<?xml version="1.0" encoding="utf-8"?>
<!-- Generator: Adobe Illustrator 22.0.0, SVG Export Plug-In . SVG Version: 6.00 Build 0)  -->
<svg version="1.1" id="Layer_1" xmlns="http://www.w3.org/2000/svg" xmlns:xlink="http://www.w3.org/1999/xlink" x="0px" y="0px"
	 viewBox="0 0 70 70" style="enable-background:new 0 0 70 70;" xml:space="preserve">
<style type="text/css">
	.st0{fill:#FFFFFF;stroke:#000000;stroke-width:1.9469;stroke-linecap:round;stroke-linejoin:round;stroke-miterlimit:10;}
	.st1{fill:none;stroke:#000000;stroke-width:1.2413;stroke-linecap:round;stroke-linejoin:round;stroke-miterlimit:10;}
	.st2{fill:#FFFFFF;stroke:#000000;stroke-width:0.9631;stroke-linecap:round;stroke-linejoin:round;stroke-miterlimit:10;}
	.st3{fill:#2D3053;}
</style>
<path class="st3" d="M65.1,21.2l-29.7-10c-0.2-0.1-0.4-0.1-0.6,0l-29.7,10c-0.4,0.1-0.7,0.5-0.7,0.9s0.3,0.8,0.7,0.9l13.5,4.6v15.8
	c0,0.5,0.4,1,1,1h31c0.5,0,1-0.4,1-1V27.6l6-2v19.6l-3.9,2.7c-0.1,0.1-0.2,0.2-0.2,0.4s0.1,0.3,0.2,0.4l3.9,2.7v4.1
	c0,0.3,0.3,0.6,0.6,0.6s0.6-0.3,0.6-0.6v-4.1l3.9-2.7c0.1-0.1,0.2-0.2,0.2-0.4s-0.1-0.3-0.2-0.4l-3.9-2.7v-20l6.2-2.1
	c0.4-0.1,0.7-0.5,0.7-0.9S65.5,21.3,65.1,21.2z M58.8,50.2l-0.6,0.4l-0.6-0.4l-2.7-1.9l2.7-1.9l0.6-0.4l0.6,0.4l2.7,1.9L58.8,50.2z
	 M51.6,25.5l-1,0.3l-1,0.3l-14.5,4.9l-14.5-4.9l-1-0.3l-1-0.3L8.5,22.1l26.6-9l26.6,9L51.6,25.5z M49.6,42.4h-29V28.2L34.8,33
	c0.1,0,0.2,0.1,0.3,0.1s0.2,0,0.3-0.1l14.2-4.8V42.4z"/>
</svg>
