<?xml version="1.0" encoding="utf-8"?>
<!-- Generator: Adobe Illustrator 22.0.0, SVG Export Plug-In . SVG Version: 6.00 Build 0)  -->
<svg version="1.1" id="Layer_1" xmlns="http://www.w3.org/2000/svg" xmlns:xlink="http://www.w3.org/1999/xlink" x="0px" y="0px"
	 viewBox="0 0 70 70" style="enable-background:new 0 0 70 70;" xml:space="preserve">
<style type="text/css">
	.st0{fill:#FFFFFF;stroke:#000000;stroke-width:1.9469;stroke-linecap:round;stroke-linejoin:round;stroke-miterlimit:10;}
	.st1{fill:none;stroke:#000000;stroke-width:1.2413;stroke-linecap:round;stroke-linejoin:round;stroke-miterlimit:10;}
	.st2{fill:#FFFFFF;stroke:#000000;stroke-width:0.9631;stroke-linecap:round;stroke-linejoin:round;stroke-miterlimit:10;}
	.st3{fill:#2D3053;}
	.st4{fill:#FFFFFF;stroke:#2D3053;stroke-linecap:round;stroke-linejoin:round;stroke-miterlimit:10;}
	.st5{fill:none;stroke:#2D3053;stroke-width:1.5;stroke-linecap:round;stroke-linejoin:round;stroke-miterlimit:10;}
	.st6{fill:#FFFFFF;stroke:#FFFFFF;stroke-width:3.1755;stroke-miterlimit:10;}
	.st7{fill:#FFFFFF;stroke:#2D3053;stroke-width:1.5878;stroke-linecap:round;stroke-linejoin:round;stroke-miterlimit:10;}
	.st8{fill:#E6E6E6;}
</style>
<g>
	<path class="st8" d="M47.6,53.9H14.5V16.1h33.1v12.5c0.4-0.3,1-0.4,1.5-0.3v-13c0-0.4-0.3-0.8-0.8-0.8H13.7c-0.4,0-0.8,0.3-0.8,0.8
		v39.3c0,0.4,0.3,0.8,0.8,0.8h34.6c0.4,0,0.8-0.3,0.8-0.8v-9.4l-1.5,1.5V53.9z"/>
	<path class="st8" d="M43.7,23H18.4c-0.4,0-0.8,0.3-0.8,0.8s0.3,0.8,0.8,0.8h25.3c0.4,0,0.8-0.3,0.8-0.8S44.1,23,43.7,23z"/>
	<path class="st8" d="M44.4,28.5c0-0.4-0.3-0.8-0.8-0.8H18.4c-0.4,0-0.8,0.3-0.8,0.8s0.3,0.8,0.8,0.8h25.3
		C44.1,29.2,44.4,28.9,44.4,28.5z"/>
	<path class="st8" d="M43.7,32.4C43.7,32.4,43.7,32.4,43.7,32.4l-25.3,0c-0.4,0-0.8,0.3-0.8,0.8s0.3,0.8,0.8,0.8h23.8L43.7,32.4z"/>
	<path class="st8" d="M39.1,37.1H18.4c-0.4,0-0.8,0.3-0.8,0.8s0.3,0.8,0.8,0.8h19.1L39.1,37.1z"/>
	<path class="st8" d="M33.7,43c0.1-0.2,0.1-0.4,0.2-0.5c0.1-0.3,0.3-0.5,0.4-0.7l0,0H18.4c-0.4,0-0.8,0.3-0.8,0.8s0.3,0.8,0.8,0.8
		h15.2L33.7,43z"/>
	<path class="st8" d="M17.7,47.3c0,0.4,0.3,0.8,0.8,0.8h13.9l0.4-1.5H18.4C18,46.5,17.7,46.8,17.7,47.3z"/>
	<path class="st8" d="M55.8,33.3l-3.9-3.9c-0.4-0.4-1.1-0.4-1.5,0c0,0,0,0,0,0l-0.9,0.9l-0.3-0.3l0,0c-0.1-0.1-0.4-0.2-0.6-0.2
		s-0.4,0.1-0.6,0.2l-0.4,0.4l-6.7,6.7l-1.5,1.5l-3.2,3.2L35.1,43c-0.1,0.1-0.1,0.2-0.2,0.3c0,0,0,0,0,0c0,0.1-0.1,0.1-0.1,0.2
		l-0.8,3L33.5,48l-1,3.7c-0.1,0.3,0,0.6,0.2,0.8c0.2,0.2,0.4,0.2,0.6,0.2c0.1,0,0.1,0,0.2,0l8.2-2.2c0.1,0,0.1-0.1,0.2-0.1
		c0.1,0,0.3-0.1,0.4-0.2l5.3-5.3l1.5-1.5l6.1-6.1c0.3-0.3,0.3-0.6,0.1-0.9c0,0,0,0,0,0c0-0.1-0.1-0.1-0.1-0.2l-0.3-0.3l0,0l0.9-0.9
		C56.2,34.4,56.2,33.7,55.8,33.3z M52.8,37.4l-3.7,3.7l-1.5,1.5l-3.9,3.9L42.2,48l-0.5,0.5l-0.2-0.2L41.2,48l-1.5-1.5L37,43.8
		l-0.2-0.2l0.2-0.2l1.5-1.5l3.2-3.2l1.5-1.5l4.4-4.4l0.2-0.2l0.7-0.7l0.2,0.2l0.4,0.4l3.5,3.5l0.9,0.9L52.8,37.4z M35.2,48l0.4-1.5
		l0.3-1.2l0.3,0.3l0.9,0.9l1.5,1.5l1,1l0.3,0.3l-5.5,1.5L35.2,48z"/>
</g>
</svg>
